# xmcd
#
# Track frame offsets:
#	150
#	7520
#	17633
#	29198
#	36235
#	45062
#	50797
#	63548
#	78532
#	89793
#	102275
#	112670
#	124468
#	133927
#	145743
#
# Disc length: 2096 seconds
#
# Revision: 0
# Processed by: cddbd v1.5.2PL0 Copyright (c) Steve Scherf et al.
# Submitted via: EZCDAudioConverter 8.3.2.1
#
DISCID=cb082e0f
DTITLE=Various Artist - Gospel Sung by the Great Quartets
DYEAR=2006
DGENRE=
TTITLE0=The Statesmen - That's Gospel Brother
TTITLE1=The Sego Brothers and Naomi - How Beautiful Heaven Must Be
TTITLE2=The Rangers - Didn't It Rain
TTITLE3=The Gospel Singing Caravan - I Feel Like Traveling On
TTITLE4=The Rebels - Whispering Hope
TTITLE5=The Gabriels - When the Roll is Called Up Yonder
TTITLE6=The Oak Ridge Boys - Storm of Life
TTITLE7=The Florida Boys - Battle Hymn of the Republic
TTITLE8=Wendy Bagwell - Don't Cry
TTITLE9=J T Adams and The Men of Texas - The Love of God
TTITLE10=Dixie Echoes - At the Roll Call
TTITLE11=The Pine Ridge Boys - Jesus is Mine
TTITLE12=The Morris Family - Rock of Love
TTITLE13=The Melody Men - No Not One
TTITLE14=Carl Story and The Rambling Mountaineers - I'm Going Home
EXTD=
EXTT0=
EXTT1=
EXTT2=
EXTT3=
EXTT4=
EXTT5=
EXTT6=
EXTT7=
EXTT8=
EXTT9=
EXTT10=
EXTT11=
EXTT12=
EXTT13=
EXTT14=
PLAYORDER=
